<svg xmlns='http://www.w3.org/2000/svg' width='400' height='400'>
      <defs><style>.cls-path-cs4-female-3R{clip-path:url(#clip-path-cs4-female-3R)}.cls-path-cs4-female-3L{clip-path:url(#clip-path-cs4-female-3L)}.cls-multipy{mix-blend-mode: multiply;}.cls-softlight{mix-blend-mode: soft-light;}.cls-overlay{mix-blend-mode: overlay;}.cls-colorburn{mix-blend-mode: color-burn;}.cls-screen{mix-blend-mode: screen;}.cls-lighten{ mix-blend-mode: darken;}</style>
      <clipPath id="clip-path-cs4-female-3R"><path fill="#none" d="M259.48,162.11s-.64,2.18-1.46,4.78c-1.13,3.55-2.61,7.88-3.28,8.45-1.16,1-23.2,4.69-35.86,0a25.66,25.66,0,0,1,2.66-4.89c3.13-4.63,9.26-10.88,19.47-10.93C257.25,159.45,259.48,162.11,259.48,162.11Z"></path></clipPath><clipPath id="clip-path-cs4-female-3L"><path fill="#none" d="M140.52,163.24s.64,2.18,1.46,4.77c1.13,3.56,2.61,7.89,3.28,8.46,1.16,1,23.2,4.68,35.86,0a25.66,25.66,0,0,0-2.66-4.89C175.33,167,169.2,160.7,159,160.65,142.75,160.58,140.52,163.24,140.52,163.24Z"></path></clipPath></defs><path fill="#e39f78" stroke="#000" stroke-miterlimit="10" d="M371.17,400H28.89q.7-4,1.47-8c4.27-22.53,11.75-34.78,32-36.84,28.52-2.9,63.22-1.41,88.37-21.39,12.27-9.76,17.65-27,18.72-45a124.7,124.7,0,0,0-.47-20.1.61.61,0,0,0,0-.14,128.8,128.8,0,0,0-3.75-20.44l2.16-.1c11.24-.54,62.8-2.85,67.07.06.4.26.39.57-.09.93l-.23.16a.8.8,0,0,1,.19.18c2.31,2.59-.49,19.93-1.82,27.56-.25,1.48-.46,2.6-.56,3.17a68.66,68.66,0,0,0-1,11.57c0,21.06,10,39.51,27.54,48.29,23.12,11.57,54.22,12,79.07,14.56,20.28,2.07,27.75,14.31,32,36.84C370.14,394.21,370.67,397.1,371.17,400Z" class="canChange" style="fill:rgb(231, 192, 160)"></path><path fill="#59003c" opacity="0.5" d="M229.93,292.33l-2-.91c-1.94,10.05,3.27,31.29-.71,34.71-4.85,4.18-18.43-27.14-20.37-35.49s-3.87,15.66-18.42,4.17a28.46,28.46,0,0,0-19.07-6c.45-17.58-2.2-43.29-2.2-43.29H232s-2.08,20.17-2.24,37C229.72,286,229.77,289.33,229.93,292.33Z" class="cls-overlay"></path><polyline fill="#e39f78" stroke="#000" stroke-miterlimit="10" points="112.21 160.69 111.13 181.33 126.29 227.92 274.79 226.96 288.88 176.99 285.62 163.95 250.94 95.5 209.14 49.89 191.96 49.89" class="canChange" style="fill:rgb(231, 192, 160)"></polyline><path fill="#e39f78" stroke="#000" stroke-miterlimit="10" d="M202.17,49.87s56.36-3.26,77,36.94,9.75,89.09,9.75,89.09" class="canChange" style="fill:rgb(231, 192, 160)"></path><path fill="#e39f78" stroke="#000" stroke-miterlimit="10" d="M283.55,183.45s3.24-13,14-6.86c7.22,4.13,5.5,16.85,4.42,23.51-1.41,8.64-3.56,18.2-9.77,24.76-3.6,3.81-17.21,12.26-18.49,2.1" class="canChange" style="fill:rgb(231, 192, 160)"></path><path fill="#e39f78" stroke="#000" stroke-miterlimit="10" d="M296.13,182.28s-16.3,7.14-13.68,19,6.39,10.24,5.17,15.11" class="canChange" style="fill:rgb(231, 192, 160)"></path><path fill="#e39f78" stroke="#000" stroke-miterlimit="10" d="M295.07,204.46s6.45-17.55-4.94-18.59" class="canChange" style="fill:rgb(231, 192, 160)"></path><path fill="#e39f78" stroke="#000" stroke-miterlimit="10" d="M116.45,183.45s-3.24-13-14-6.86C95.23,180.72,97,193.44,98,200.1c1.41,8.64,3.56,18.2,9.77,24.76,3.6,3.81,17.21,12.26,18.49,2.1" class="canChange" style="fill:rgb(231, 192, 160)"></path><path fill="#e39f78" stroke="#000" stroke-miterlimit="10" d="M103.87,182.28s16.3,7.14,13.68,19-6.39,10.24-5.17,15.11" class="canChange" style="fill:rgb(231, 192, 160)"></path><path fill="#e39f78" stroke="#000" stroke-miterlimit="10" d="M104.93,204.46s-6.45-17.55,4.94-18.59" class="canChange" style="fill:rgb(231, 192, 160)"></path><path fill="#e39f78" stroke="#000" stroke-miterlimit="10" d="M198.37,49.87h-.23s-56.36-3.26-76.95,36.94-9.76,89.09-9.76,89.09" class="canChange" style="fill:rgb(231, 192, 160)"></path><path fill="#59003c" opacity="0.5" d="M302,200.09c-1.41,8.65-3.57,18.21-9.77,24.78-3.61,3.8-17.2,12.24-18.49,2.1l-11.29.07c.38-15.86,16.5-33,14.53-49.51-1.11-9.35-18.92-22.5-21.67-25a129.32,129.32,0,0,0,6-16.83,102.85,102.85,0,0,0,2.95-14.08c2.16-16.47-.72-33.95-21.38-37l-1.53.33c-2.26.46-6.95,1.36-13.37,2.3-13.49,1.94-34.62,4-56.89,2.26-2.35-.19-4.73-.4-7.1-.69-4.41-.5-8.83-1.17-13.23-2,0,0-14.63,15.27-12.35,37.56a48.46,48.46,0,0,0,2,9.63,59.7,59.7,0,0,0,7.1,14.74s-32,14.67-24.38,42.91c2.77,10.34,20.67,30.55,16.82,36.18l-13.58.09-.1-.31c-1.78,9.14-14.86,1-18.39-2.74-6.2-6.57-8.36-16.13-9.77-24.78-1.08-6.65-2.79-19.38,4.42-23.51,3.92-2.22,6.83-1.93,9-.65v-.08c-.39-1.8-10.44-49.6,9.76-89,20.6-40.2,77-36.94,77-36.94h4s2.62-.15,6.95,0h0c15.71.61,53.83,5.42,70,36.93,19.93,38.91,10.42,86,9.79,88.94,2.09-1.12,4.91-1.28,8.63.83C304.76,180.71,303.05,193.44,302,200.09Z" class="cls-overlay"></path><path fill="#fff" opacity="0.26" d="M285.72,218.22a3.34,3.34,0,0,0-2.1-2.42,4.48,4.48,0,0,0-3.26.1,2.85,2.85,0,0,0-1.8,1.77c-.25,1,.25,1.91.4,2.88s0,2.08.61,2.82a2.34,2.34,0,0,0,3,0C284,222.41,286.06,220.05,285.72,218.22Z" class="cls-softlight"></path><path fill="#fff" opacity="0.26" d="M113.78,218.22a3.34,3.34,0,0,1,2.1-2.42,4.48,4.48,0,0,1,3.26.1,2.87,2.87,0,0,1,1.81,1.77c.24,1-.26,1.91-.41,2.88s0,2.08-.61,2.82a2.34,2.34,0,0,1-3,0C115.54,222.41,113.45,220.05,113.78,218.22Z" class="cls-softlight"></path><path fill="#fff" opacity="0.26" d="M109,188.39S104.62,196,107.87,208c0,0-5.19-7.41-4.76-11.31s.7-10.21,3.82-9.77S109,188.39,109,188.39Z" class="cls-softlight"></path><path fill="#fff" opacity="0.26" d="M290.77,188.39s4.34,7.61,1.09,19.56c0,0,5.19-7.41,4.76-11.31s-.7-10.21-3.81-9.77S290.77,188.39,290.77,188.39Z" class="cls-softlight"></path><path fill="#e39f78" stroke="#000" stroke-miterlimit="10" d="M283.45,178.7l.24.55c-.73,5.51-1.5,10.83-2.28,15.85,0,.24-.11.65-.21,1.22-.2,1.3-.42,2.57-.61,3.82-.57,3.41-1.13,6.63-1.68,9.63a226.78,226.78,0,0,1-12.74,34.79c-11.49,24.8-29.55,37.22-63.64,49.24h0l-.86-.31,0,0c-34-12.25-56.91-25.38-68.1-50.24a186.81,186.81,0,0,1-13.22-42c0-.2-.07-.38-.09-.53a.08.08,0,0,1,0,0c0-.13,0-.26-.07-.39s0-.11,0-.16,0-.26,0-.33a.28.28,0,0,1,0-.06c-.86-5.38-1.72-11.21-2.51-17.3a.06.06,0,0,1,0,0h0s0,0,0,0h0a16.21,16.21,0,0,1-.82-3.78" class="canChange" style="fill:rgb(231, 192, 160)"></path><path fill="#59003c" opacity="0.5" d="M180.22,284.38c-21.83-10.11-37.13-22.24-45.65-41.16a186.81,186.81,0,0,1-13.22-42c0-.2-.07-.38-.09-.53a.08.08,0,0,1,0,0c0-.13,0-.26-.07-.39s0-.11,0-.16,0-.12,0-.16c6.92,5.49,15,23.68,25,42.58C167.64,282.86,179.88,284.1,180.22,284.38Z" class="cls-overlay"></path><path fill="#59003c" opacity="0.5" d="M221.53,286.38c21.83-10.11,37.13-22.24,45.65-41.16a186.81,186.81,0,0,0,13.22-42c0-.2.07-.38.09-.53a.08.08,0,0,0,0,0c0-.13,0-.26.07-.39s0-.11,0-.16,0-.12,0-.16c-6.92,5.49-15,23.68-25,42.58C234.11,284.86,221.87,286.1,221.53,286.38Z" class="cls-overlay"></path><path fill="#763332" stroke="#000" stroke-miterlimit="10" stroke-width="2" d="M324.8,151.6v1.4c0,0.4,0,0.9-0.1,1.3s-0.1,0.9-0.1,1.4c-0.1,0.8-0.1,1.5-0.2,2.3s-0.1,1.2-0.2,1.8    c-0.1,0.5-0.1,0.9-0.2,1.4l-0.2,1.4c-0.2,1.5-0.5,3.1-0.7,4.6c-0.1,0.3-0.2,0.5-0.4,0.8c-0.4,0.8-0.8,1.7-1.2,2.5    c-0.5,1-1,2-1.6,3c-1.5,2.9-3.2,5.8-5.1,8.7c-1.1,1.6-2.2,3.3-3.4,4.9c-0.5,0.7-1,1.4-1.6,2.1c-2,2.6-4.2,5.1-6.6,7.5    c-0.3,0.3-0.6,0.6-1,1v0.3H302c-1.2,1.2-2.5,2.3-3.8,3.5c-0.9,0.8-1.8,1.5-2.8,2.3c-1.2,1-2.5,1.9-3.8,2.8c-1,0.7-2,1.4-3.1,2    s-2,1.2-3,1.8s-2.1,1.2-3.2,1.7c-0.5,0.3-1,0.5-1.5,0.8L280,213c-0.5,0.2-1,0.4-1.5,0.7c0.4-1.2,0.8-2.7,1.2-4.3    c0.4-1.6,0.8-3.1,1.1-4.8c0.4-2,0.8-4,1.2-6.2c0.6-3.8,1.1-7.5,1.3-11.3c0-2.4-0.1-4.8-0.1-7.2h0.2c-0.2-8.2-1.9-16.2-6-22.6    c2,8.6,2.8,17.5,2.4,26.4c-0.1,1.2-0.1,2.4-0.3,3.7c-0.3,3.4-0.8,6.7-1.6,10c-0.2,1.1-0.5,2.2-0.8,3.3c-1.6,5.7-4,11.2-7.2,16.2    c0.5-1.7,1.1-3.3,1.5-5c0.2-0.8,0.5-1.5,0.7-2.3l0.1-0.2c0.2-0.8,0.4-1.6,0.6-2.4v-0.1c0.2-0.8,0.4-1.7,0.6-2.6    c0.2-0.8,0.4-1.7,0.5-2.6c0.2-0.9,0.3-1.7,0.5-2.6c0.1-0.9,0.3-1.7,0.4-2.6v-0.2c0.1-0.9,0.2-1.8,0.3-2.7v-0.4    c0-0.4,0.1-0.7,0.1-1.1c0-0.4,0.1-1,0.1-1.5c0.2-2,0.2-4,0.2-6.1v-2.3c-0.1-2-0.2-4-0.4-5.9c-0.3-5.1-1.1-10.3-2.2-15.3l-1.5-0.4    l-0.9-0.2l-5-1.4c-3.7-0.7-7.2-2-10.5-3.9c-5-2.9-9.8-6.7-13.2-9.8s-5.6-5.5-5.6-5.5h-18.8c-13.7-2.9-23.2-38.7-23.2-38.7    c-1.2,5.7-1.6,11.6-1,17.4c1.1,8.7,15.7,20.3,15.7,20.3l-2.1,2l-4.2-1v2.9l-6.3,2.9c-4.8,1.2-9.8-0.7-12.5-4.8v5.8    c-12,0-23.3-5.9-30-15.9c-0.1-0.1-0.1-0.2-0.2-0.3c0-0.1-0.1-0.1-0.1-0.2l2.1,14.5c-5.2,2-28.3,0-28.3,0s0,0.2,0,0.7    c-0.2,0.7-0.5,2.1-0.9,3.9c-0.7,3.5-1.7,8.8-2.6,15.4c-0.1,0.8-0.2,1.5-0.3,2.3c-0.2,1.9-0.4,3.9-0.6,6c-0.1,1-0.2,2-0.2,3    c-0.1,1.1-0.1,2.2-0.2,3.3c-0.1,2.1-0.2,4.2-0.2,6.3c0,3.3,0,6.7,0.2,10.1c0,0.6,0.1,1.2,0.1,1.8c0.2,2.7,0.4,5.5,0.8,8.2    c0.3,2.8,0.8,5.7,1.3,8.5c-1.9-3.4-3.6-7-5-10.6c-0.4-1.1-0.8-2.2-1.2-3.4c-0.2-0.8-0.5-1.5-0.7-2.3c-0.6-2.1-1.2-4.2-1.6-6.2    c0-0.2-0.1-0.4-0.1-0.6c-0.4-1.9-0.7-3.7-1-5.4c-0.6-3.9-1-7.8-1.1-11.7c-0.1-2.5,0-4,0-4c-0.4,1.2-0.8,2.4-1.1,3.6    c-1,4.3-1.2,8.7-0.8,13.1c0.3,3.5,0.8,7,1.7,10.3c0.3,1.1,0.5,2.2,0.9,3.3l0.3,0.1l-0.3-0.1c0.2,0.7,0.4,1.4,0.6,2.1    c0.6,1.8,1.2,3.6,1.8,5.3c0.3,0.8,0.6,1.6,0.9,2.4c0,0.1,0.1,0.2,0.1,0.3c-0.1-0.1-0.3-0.2-0.4-0.3h-0.6c-0.3,0-0.6,0-0.9,0    c0-0.4-0.1-0.8-0.1-1.2c-0.5-0.4-1-0.7-1.5-1.1c-1.9-1.4-3.7-2.8-5.4-4.2c-1.1-0.9-2.1-1.9-3.2-2.9c-1.2-1.1-2.3-2.3-3.4-3.5    c-2.3-2.5-4.5-5.2-6.5-7.9c-0.5-0.7-0.9-1.3-1.4-2c-1.6-2.4-3-4.7-4.3-7.1c-1.4-2.5-2.6-5.1-3.7-7.7c-0.3-0.8-0.7-1.6-1-2.4    c-0.5-1.3-1-2.5-1.4-3.8c-1.2-3.6-2.2-7.3-2.9-11c-0.1-2.9-0.4-5.8-0.6-8.8c0.2-1.6,0.3-3.3,0.4-4.9c0.8-4.8,1.5-9.6,2.2-14.4    c0.3-2.2,0.6-4.3,0.9-6.5c0.8-5.2,1.5-10.4,2.5-15.5c4.6-24.9,32.3-47.6,53.1-64c2.6-2.1,5.1-4,7.5-5.9c0.9-0.7,1.8-1.4,2.7-2    c19.6-13,44-4.8,46.3-4c0.1,0,0.2,0.1,0.2,0.1c17.7-8.5,33.5-6.8,46.1-1.8c18.4,7.3,29.8,21.5,29.8,21.5    c15.1,8.1,27.9,25.3,36.7,40.1c1,2.2,2.2,4.4,3.5,6.4c1.4,3.3,2.7,6.6,4.1,9.9c1.2,10.8,4.9,21.2,6.9,31.9    C324.8,142.3,325.1,147,324.8,151.6z" class="canChange" style="fill:rgb(31, 21, 12)"></path><path fill="none" stroke="#000" stroke-miterlimit="10" d="M198.8,45.7c0,0,10.3,0,12.4,12.9s-9.4,60.5,25,81.3"></path><path fill="none" stroke="#000" stroke-miterlimit="10" d="M183.5,140.4c0,0-29.2-55.5,12.5-94.2"></path><path fill="none" stroke="#000" stroke-miterlimit="10" d="M197.1,49.2c0,0-7.9,33.6-2.9,53"></path><path fill="none" stroke="#000" stroke-miterlimit="10" d="M153.2,130.4c0,0-20.9-67.4,37.6-84.2"></path><path fill="none" stroke="#000" stroke-miterlimit="10" d="M127.1,145.3c0,0-29.2-87.2,56.4-99.1"></path><path fill="none" stroke="#000" stroke-miterlimit="10" d="M273.3,161.2c0,0,8.4-116.9-68.9-116.9"></path><path fill="none" stroke="#000" stroke-miterlimit="10" d="M211.7,48.2c0,0,26.1,6,28.2,34.7s1.6,63.6,18,74.4"></path><path fill="none" stroke="#000" stroke-miterlimit="10" d="M86,170.4c8-23.5,10.7-50.2,11.6-61.4c0.2-3.4,0.3-5.4,0.3-5.4"></path><path fill="none" stroke="#000" stroke-miterlimit="10" d="M90.6,180.6c2-4.6,3.7-9.3,5.1-14.1c1.9-6.3,3.4-12.7,4.6-19.2c1.4-7.4,2.2-14.9,2.5-22.5"></path><path fill="none" stroke="#000" stroke-miterlimit="10" d="M96.3,189.7c0.8-2.7,1.6-5.3,2.2-7.9c0.3-1.3,0.7-2.6,1-3.8c0.6-2.7,1.2-5.3,1.8-7.8     c1.8-8.5,3.2-17.2,4-25.9"></path><path fill="none" stroke="#000" stroke-miterlimit="10" d="M111.4,158.2c0,0-0.1,0.3-0.2,1s-0.3,1.5-0.6,2.6l0,0c-0.3,1.3-0.7,2.9-1.1,4.9l0,0c-0.3,1.3-0.6,2.6-1,4.1     c-0.2,1-0.5,2.1-0.7,3.3c-0.2,0.9-0.4,1.8-0.6,2.8c-0.1,0.3-0.2,0.6-0.2,1c-0.5,2.4-1.1,4.9-1.7,7.6c-0.1,0.6-0.2,1.2-0.4,1.8     c-0.4,1.8-0.8,3.6-1.1,5.4c-0.3,1.6-0.7,3.2-1,4.9"></path><path fill="none" stroke="#000" stroke-miterlimit="10" d="M322.9,162.8c-2.4-11.6-3.6-23.4-3.6-35.3"></path><path fill="none" stroke="#000" stroke-miterlimit="10" d="M309.8,189.1c-0.4-3.2-0.8-6.4-1.2-9.6c0-0.2,0-0.5-0.1-0.8c-0.2-1.9-0.4-3.8-0.6-5.6     c-0.7-6.6-1.1-12.9-1.5-18.2c-0.3-5.1-0.5-9.4-0.7-12.6c-0.2-3.9-0.2-6.1-0.2-6.1"></path><path fill="none" stroke="#000" stroke-miterlimit="10" d="M295.5,203.7c-0.2-2.7-0.4-5.4-0.6-8c-0.5-5.3-1-10.3-1.6-15.1c-2.4-19-5.5-32.9-5.5-32.9"></path><path fill="none" stroke="#000" stroke-miterlimit="10" d="M195.5,38.8c0,0,45.9-23.8,74.1,17.8"></path><path fill="none" stroke="#000" stroke-miterlimit="10" d="M195.8,43.2c0,0-8.1-14.8-38.4-3s-38.6,42.6-48,53.5"></path><g opacity="0.32" class="show"><path opacity="0.4" fill="#fff" d="M308,90.2l-0.2,10.8c-3.9-2.9-6.6-7.1-7.5-11.9l-0.7,9c-1.9-1.9-3.5-4.2-4.6-6.7c0.2,2.7-0.2,5.4-1.1,8     c-2.5-4-4.4-8.2-5.6-12.7c-0.1,9.6-1.2,19.2-3.4,28.6L272.1,93l-0.3,14.6l-2.6-4.3l-1.4,4.9l-7.1-9.3c-0.3,2.7-1.3,5.2-2.7,7.5     l-7.6-8.5c-0.7,5.1-3,9.8-6.4,13.6c-6.8-7-12.3-15-16.4-23.8c-0.9,4.9-2.4,9.6-4.5,14.1c-3.5-1.9-6.7-4.2-9.6-6.9     c-0.1,2.8-0.5,5.7-2.5,7.7s-5.8,2-7.1-0.4l-2.2,3.3l-4.2-3.2c0.6,7.2,4.1,13.9,9.9,18.3v-14l6.6,7.1c0.4-2,2.4-3.3,4.4-2.9     c0.3,0.1,0.7,0.2,1,0.4c0.5-1.3,0.6-2.7,0.4-4.1l6.9,3.7c0-1.5,0.4-3,1.1-4.3c6,9.2,12.3,18.1,19,26.8l1.2-12.2l3.8,3.1     c0.8-3.4,1.9-6.8,3.4-10c0.8,1.8,2.2,3.3,3.9,4.2c0.1-2,0.9-3.9,2.3-5.3c0.9,2.6,2.7,4.9,5,6.4l3.1-5c2.5,4.7,4.6,9.6,6.1,14.7     l2.9-5.7l2.4,4.4c0.4-1.6,1.3-3.1,2.6-4.2c0.3,1.2,1.2,2.2,2.4,2.6l1.7-6.5l2.9,4.3l6.4-15.8c2,5.2,3.3,10.6,3.8,16.2     c1.5-5.5,3.7-10.7,6.6-15.6c1.5,1.4,2.4,3.3,2.5,5.4l0.3-3.4c0.8,1.2,1.3,2.6,1.5,4.1c1-5.3,1.4-10.7,1.2-16.2"></path><path opacity="0.4" fill="#fff" d="M186.4,83.9l-2.9,5.7l-1.7-1.4c0,0.8-0.3,1.5-0.8,2.1c-0.4-1.1-1.3-1.9-2.3-2.4c-3.1,7.8-6.5,15.5-10.3,23     c-0.3-7,0-13.9,1-20.8l-3.1,5.2l-1-4l-6.2,6.2l-1-6.8l-20,26.7c-2.6,3.5-5.4,7.1-9.2,9.3c1.3-8.3,3.4-16.4,6.1-24.4l-7.3,10.8     c0.1-3.6-0.4-7.1-1.4-10.6l-3.4,7.8l-4.6-5.8l-0.5,20.7c-1.7-4.9-2.8-10.1-3.2-15.3c-2.7,2.9-5.9,5.5-9.3,7.6l-1.6-8.5     c-0.1,2.5-1,5-2.5,7c-1.4-2.8-2.2-5.9-2.3-9c-0.4,2.6-1.4,5.1-2.8,7.3c-1-2.9-1.4-6-1-9c-0.1,2.2-1.2,4.2-3,5.5     c2.9-5.9,5-12.1,6.4-18.4L98.4,98l7.1-6.5l0.2,6.1c-0.3-1.7,0.3-3.4,1.5-4.6c2,2,3.4,4.4,4.4,7.1l22.9-22.7     c-1,5.7-1.2,11.4-0.7,17.1l3.4-6.6l2.2,9.4l1.2-2.6l1.8,2.6l2.1-5.6l2.9,0.3c3.1-4,5.6-8.5,7.2-13.3c1.7,2.1,2.9,4.5,3.7,7.2     l1.9-3l2,1.6l3.3-3.5c0.7,1.3,2.4,1.9,3.7,1.2c0.4-0.2,0.8-0.5,1-0.9c-0.3,0.4,0.2,1.1,0.8,1c0.5-0.1,1-0.5,1.3-0.9l6.6-7.6     c0.5,1.9,1.3,3.6,2.5,5.1l2.3-8.5c1.4,3.3,3.2,6.3,5.3,9.1c0.8-1.1,1.5-2.2,2-3.4c0.3,6.3-1.7,12-1.8,18.3     C188.7,90.5,187.7,87.2,186.4,83.9z"></path></g><path fill="none" d="M229.2,58.7c3.8,3.1,7.1,6.8,9.7,10.9C236,65.7,232.7,62,229.2,58.7z"></path><path fill="none" d="M256.3,63c-3.9-3.8-7.8-7.6-11.9-11.1C249,54.9,253.1,58.6,256.3,63z"></path><path opacity="0.27" d="M211.2,37.4c8.9,0,17.5,3.4,25,8.3c2.9,1.9,5.6,4,8.3,6.2c-9.9-6.4-22.3-9.2-33.9-7.1    c6.8,3.8,13.1,8.5,18.7,13.9c-6-5-13.3-8.4-20.9-9.9c8.5,12.6,16.3,25.7,23.3,39.2c-10.3-9.6-20.3-19.6-30-29.8    c-1.4,3.8-2.1,7.9-2.3,11.9c-0.1-3.9-1-7.8-2.6-11.4c-2,3.2-3.5,6.7-4.3,10.4c-0.7-5.7-0.8-11.5-0.4-17.3    c-9.4,8.3-16.4,19.2-20,31.1c-3.8-6.6-6.2-14.8-3.3-21.8c1-2.5,2.7-4.7,4.3-6.9c1.3-1.7,2.6-3.4,3.9-5.1    c-5,4.2-10.1,8.4-15.1,12.6c0.4-3.5,2.8-6.4,5-9.1c2-2.4,4-4.7,5.9-7.1c-8.6,4.8-16.9,10.2-24.8,16.1c3.1-8.6,10.3-15.7,19-18.7    c-9,1.6-16.8,7-24.2,12.3c-4.2,3-8.4,6-12.6,9c7.2-12.2,19.5-21.3,33.4-24.5c-8.8-0.6-16.7,5.1-23.5,10.6    C136,53.6,132,57,128,60.5c5.4-12.3,17-21.8,30.1-24.5c-6.2,0.6-12.2,2.7-17.9,5.3c-2.4,1.1-4.8,2.2-7.1,3.4    c5.4-4.2,11.2-8.1,17.3-11.2c4.5-2.2,9.1-4,14-5.1c8.8-1.9,17.5-1,25.7,2.4c3.4,1.4,4.8,1.1,6.6-1.3c0.1,0,0.2,0.1,0.2,0.1    c17.7-8.5,33.5-6.8,46.1-1.8c-7.2-1-14.6-0.8-21.8,0.5c8.4-0.1,16.6,2.6,23.9,6.7c5.7,3.1,10.9,7.1,15.9,11.2    c-6.8-4.8-15.5-7-24-8.1C228.5,37.2,219.8,36.9,211.2,37.4z"></path><path fill="none" d="M265.3,50c-1.4-1.2-2.8-2.4-4.2-3.6C262.6,47.5,264,48.7,265.3,50z"></path><path fill="#210905" d="M214.26,148.85s4.91,5.49,10.86,5.13,37.88-3.81,41.34-2.51c0,0-3.36-6.59-25.21-5.52S214.26,148.85,214.26,148.85Z" class="canChange" style="fill:null"></path><path fill="#210905" d="M185.74,148.85s-4.91,5.49-10.86,5.13-37.88-3.81-41.34-2.51c0,0,3.36-6.59,25.21-5.52S185.74,148.85,185.74,148.85Z" class="canChange" style="fill:null"></path><path d="M249.37,176.63a7.61,7.61,0,0,1,2.24.18,5.48,5.48,0,0,1,2.06,1,5.11,5.11,0,0,1,1.59,2.06,6.15,6.15,0,0,1,.42,1.49,5.24,5.24,0,0,1,0,1.72,5.85,5.85,0,0,0-.83-2.67,6.32,6.32,0,0,0-1.55-1.72,10.28,10.28,0,0,0-1.89-1.11C250.73,177.24,250,177,249.37,176.63Z"></path><path d="M247,177.75a5.65,5.65,0,0,1,1.7.15,4.89,4.89,0,0,1,1.59.7,4.43,4.43,0,0,1,1.29,1.44,4.64,4.64,0,0,1,.6,2.26,5.74,5.74,0,0,0-1-1.67,7.12,7.12,0,0,0-1.27-1.14,15.83,15.83,0,0,0-1.43-.85A11.38,11.38,0,0,1,247,177.75Z"></path><path d="M252.62,174.64a3.94,3.94,0,0,1,1.71,0,5.14,5.14,0,0,1,1.56.64,5.66,5.66,0,0,1,1.35,1.16,6,6,0,0,1,1.05,1.68l-1.38-1c-.46-.33-.91-.64-1.38-.93s-.94-.55-1.42-.8Z"></path><path d="M251.66,162.77a12.32,12.32,0,0,0,3.78-.29,12.14,12.14,0,0,0,1.83-.58A12.74,12.74,0,0,0,259,161a11.61,11.61,0,0,0,1.68-1.18,15.3,15.3,0,0,0,1.56-1.47,17.8,17.8,0,0,0,2.64-3.82,13.06,13.06,0,0,1-5.64,7.28,11.16,11.16,0,0,1-1.86.87,9.44,9.44,0,0,1-1.92.47A8,8,0,0,1,251.66,162.77Z"></path><path d="M252.05,162.78a14.23,14.23,0,0,0,3.64,1.61,12.2,12.2,0,0,0,1.86.36,10.76,10.76,0,0,0,3.69-.24,11.07,11.07,0,0,0,1.78-.62,11.42,11.42,0,0,0,3.29-2.3,9.1,9.1,0,0,1-4.93,3.74,9.66,9.66,0,0,1-1.92.34,9.06,9.06,0,0,1-1.94-.1,9.57,9.57,0,0,1-1.92-.51A10.29,10.29,0,0,1,252.05,162.78Z"></path><path d="M251.35,163.26c1-.6,1.91-1.16,2.84-1.79a19.55,19.55,0,0,0,2.67-2.1,8.62,8.62,0,0,0,2.07-2.93l.16-.46c0-.16.09-.32.12-.48a5.46,5.46,0,0,0,.14-1,6,6,0,0,0-.26-2.06,4.66,4.66,0,0,1,.56,2,6.3,6.3,0,0,1-.28,2.25,7.74,7.74,0,0,1-.93,1.89,9.48,9.48,0,0,1-1.23,1.47,12.56,12.56,0,0,1-2.83,2A14.21,14.21,0,0,1,251.35,163.26Z"></path><path d="M250.23,162.57a22.34,22.34,0,0,0,2-2.39,19.29,19.29,0,0,0,1.68-2.79,18,18,0,0,0,1.2-3.21,17.16,17.16,0,0,0,.55-3.58,10.93,10.93,0,0,1-.09,3.78,13.25,13.25,0,0,1-1.15,3.49,12.13,12.13,0,0,1-1.87,2.82A8.43,8.43,0,0,1,250.23,162.57Z"></path><path d="M248.39,161.57a25.59,25.59,0,0,0,1.86-2.72,22.05,22.05,0,0,0,1.48-3,20,20,0,0,0,1-3.39,17.74,17.74,0,0,0,.3-3.66,11,11,0,0,1,.18,3.77,14.83,14.83,0,0,1-.9,3.67,13.56,13.56,0,0,1-1.67,3.11A9.57,9.57,0,0,1,248.39,161.57Z"></path><path fill="#72004d" opacity="0.16" d="M225.86,150a40.09,40.09,0,0,0-8.07,8.76c-2.08,3-4.84,6.58-3.93,10.29.72,2.92,3.28,5.24,5.92,6.85,0,0,1.49-4.48,3.12-5.5s15.71-7.28,18.89-5.78c0,0-9-7.71-3.27-9.73,0,0-10.41-.69,3.88-6.11-.42.15-2.83-1-3.32-1.07a18.86,18.86,0,0,0-7.7-.31A12.51,12.51,0,0,0,225.86,150Z" class="cls-overlay"></path><g opacity="0.32" class="cls-overlay show"><path fill="#72004d" d="M216.8,167a26,26,0,0,1,8.59-8.92,38.82,38.82,0,0,1,11.4-5.08,35.44,35.44,0,0,1,12.43-1A26,26,0,0,1,260.93,156a28.46,28.46,0,0,0-11.76-3.48,36.34,36.34,0,0,0-12.19,1.2,40,40,0,0,0-11.28,4.83c-.44.28-.89.53-1.31.82l-1.23.93a22.29,22.29,0,0,0-2.36,2,22.54,22.54,0,0,0-2.15,2.22,10.33,10.33,0,0,0-1,1.23Z"></path></g><path fill="#72004d" opacity="0.32" d="M255.83,179.42s-4.76,3.07-13.09,2" class="cls-overlay"></path><path d="M257.25,159.52s5.22,1.26,7.16,1l-4.93,3.85-3.77,10.71h1.74s-11.44,3-16.64,2.42-20.9-4.33-20.9-4.33,3.8-14,18.59-14.54S257.25,159.52,257.25,159.52Z"></path><path fill="#f0e1ef" d="M259.48,162.11s-.64,2.18-1.46,4.78c-1.13,3.55-2.61,7.88-3.28,8.45-1.16,1-23.2,4.69-35.86,0a25.66,25.66,0,0,1,2.66-4.89c3.13-4.63,9.26-10.88,19.47-10.93C257.25,159.45,259.48,162.11,259.48,162.11Z"></path><g class="cls-path-cs4-female-3R show"><ellipse fill="#26477d" stroke="#000" stroke-miterlimit="10" cx="238.27" cy="167.74" rx="10.98" ry="9.43" transform="translate(-31.94 58.68) rotate(-13.17)" class="canChange" style="fill:rgb(31, 17, 5)"></ellipse><ellipse cx="238.24" cy="166.78" rx="7.67" ry="6.6" transform="translate(-31.73 58.65) rotate(-13.17)"></ellipse></g><path opacity="0.4" d="M259.48,162.11s-.64,2.18-1.46,4.78c-13.7-3.18-27.77.39-36.48,3.56,3.13-4.63,9.26-10.88,19.47-10.93C257.25,159.45,259.48,162.11,259.48,162.11Z"></path><ellipse fill="#fff" cx="232.56" cy="166.22" rx="2.31" ry="1.81" transform="translate(-3.72 5.33) rotate(-1.3)"></ellipse><path d="M150.63,177.75a8,8,0,0,0-2.24.19,5.48,5.48,0,0,0-2.06,1,5.11,5.11,0,0,0-1.59,2.06,6.15,6.15,0,0,0-.42,1.49,5.24,5.24,0,0,0,0,1.72,5.85,5.85,0,0,1,.83-2.67,6.32,6.32,0,0,1,1.55-1.72,9.75,9.75,0,0,1,1.89-1.11C149.27,178.37,150,178.1,150.63,177.75Z"></path><path d="M153,178.88a5.65,5.65,0,0,0-1.7.15,4.89,4.89,0,0,0-1.59.7,4.49,4.49,0,0,0-1.29,1.43,4.67,4.67,0,0,0-.6,2.26,5.68,5.68,0,0,1,1-1.66,7.12,7.12,0,0,1,1.27-1.14,13.8,13.8,0,0,1,1.43-.85A14.15,14.15,0,0,0,153,178.88Z"></path><path d="M147.38,175.76a4.1,4.1,0,0,0-1.71,0,4.9,4.9,0,0,0-1.56.64,5.62,5.62,0,0,0-1.35,1.15,6.2,6.2,0,0,0-1,1.69l1.38-1c.46-.32.91-.63,1.38-.92s.94-.55,1.42-.8Z"></path><path d="M148.34,163.89a12,12,0,0,1-3.78-.28,11.14,11.14,0,0,1-1.83-.59,11.66,11.66,0,0,1-1.77-.88,12.45,12.45,0,0,1-1.68-1.18,16.49,16.49,0,0,1-1.56-1.47,18,18,0,0,1-2.64-3.82,13.9,13.9,0,0,0,2.33,4.34,13.72,13.72,0,0,0,1.57,1.65,12.13,12.13,0,0,0,1.74,1.28,11.22,11.22,0,0,0,1.86.88,8.79,8.79,0,0,0,1.92.46A7.72,7.72,0,0,0,148.34,163.89Z"></path><path d="M148,163.91a14.23,14.23,0,0,1-3.64,1.61,12.2,12.2,0,0,1-1.86.36,10.76,10.76,0,0,1-3.69-.24A12.14,12.14,0,0,1,137,165a11.62,11.62,0,0,1-3.29-2.3,9.11,9.11,0,0,0,3.1,2.94,8.37,8.37,0,0,0,1.83.79,9,9,0,0,0,1.92.35,9.75,9.75,0,0,0,1.94-.1,10,10,0,0,0,5.47-2.79Z"></path><path d="M148.65,164.39c-1-.61-1.91-1.17-2.84-1.79a19.55,19.55,0,0,1-2.67-2.1,8.57,8.57,0,0,1-2.07-2.94l-.16-.45c0-.16-.09-.32-.12-.48a5.71,5.71,0,0,1-.14-1,6,6,0,0,1,.26-2.06,4.66,4.66,0,0,0-.56,2.05,6.3,6.3,0,0,0,.28,2.25,7.74,7.74,0,0,0,.93,1.89,9.48,9.48,0,0,0,1.23,1.47,12.56,12.56,0,0,0,2.83,2A14.21,14.21,0,0,0,148.65,164.39Z"></path><path d="M149.77,163.7a22.34,22.34,0,0,1-2-2.39,19.29,19.29,0,0,1-1.68-2.79,18,18,0,0,1-1.2-3.21,17.26,17.26,0,0,1-.55-3.59,10.92,10.92,0,0,0,.09,3.78,13.2,13.2,0,0,0,1.15,3.5,11.86,11.86,0,0,0,1.87,2.81A8.47,8.47,0,0,0,149.77,163.7Z"></path><path d="M151.61,162.7a25.59,25.59,0,0,1-1.86-2.72,21.63,21.63,0,0,1-1.48-3.06,19.48,19.48,0,0,1-1-3.39,17.63,17.63,0,0,1-.3-3.66,11.08,11.08,0,0,0-.18,3.78,14.83,14.83,0,0,0,.9,3.67,13.56,13.56,0,0,0,1.67,3.11A9.76,9.76,0,0,0,151.61,162.7Z"></path><path fill="#72004d" opacity="0.16" d="M174.14,151.14a40.09,40.09,0,0,1,8.07,8.76c2.08,3,4.84,6.57,3.93,10.29-.72,2.92-3.28,5.24-5.92,6.85,0,0-1.49-4.49-3.12-5.5s-15.71-7.28-18.89-5.78c0,0,9-7.72,3.27-9.73,0,0,10.41-.69-3.88-6.11.42.15,2.83-1,3.32-1.07a18.69,18.69,0,0,1,7.7-.31A12.51,12.51,0,0,1,174.14,151.14Z" class="cls-overlay"></path><g opacity="0.32" class="cls-overlay show"><path fill="#72004d" d="M183.2,168.11l-.9-1.27a10.22,10.22,0,0,0-1-1.22,22.54,22.54,0,0,0-2.15-2.22,22.29,22.29,0,0,0-2.36-2l-1.23-.93c-.42-.29-.87-.54-1.31-.82A40.28,40.28,0,0,0,163,154.83a36.59,36.59,0,0,0-12.19-1.19,28.46,28.46,0,0,0-11.76,3.48,25.89,25.89,0,0,1,11.71-4.05,35.44,35.44,0,0,1,12.43,1,38.56,38.56,0,0,1,11.4,5.08A25.91,25.91,0,0,1,183.2,168.11Z"></path></g><path fill="#72004d" opacity="0.32" d="M144.17,180.54s4.76,3.08,13.09,2.05" class="cls-overlay"></path><path d="M142.75,160.65s-5.22,1.26-7.16,1l4.93,3.85,3.77,10.71h-1.74s11.44,3,16.64,2.42,20.9-4.34,20.9-4.34-3.8-14-18.59-14.53S142.75,160.65,142.75,160.65Z"></path><path fill="#f0e1ef" d="M140.52,163.24s.64,2.18,1.46,4.77c1.13,3.56,2.61,7.89,3.28,8.46,1.16,1,23.2,4.68,35.86,0a25.66,25.66,0,0,0-2.66-4.89C175.33,167,169.2,160.7,159,160.65,142.75,160.58,140.52,163.24,140.52,163.24Z"></path><g class="cls-path-cs4-female-3L show"><ellipse fill="#26477d" stroke="#000" stroke-miterlimit="10" cx="161.73" cy="168.87" rx="9.43" ry="10.98" transform="translate(-39.54 287.88) rotate(-76.83)" class="canChange" style="fill:rgb(31, 17, 5)"></ellipse><ellipse cx="161.76" cy="167.91" rx="6.6" ry="7.67" transform="translate(-38.58 287.17) rotate(-76.83)"></ellipse></g><path opacity="0.4" d="M140.52,163.24s.64,2.18,1.46,4.77c13.7-3.17,27.77.4,36.48,3.57C175.33,167,169.2,160.7,159,160.65,142.75,160.58,140.52,163.24,140.52,163.24Z"></path><ellipse fill="#fff" cx="167.44" cy="167.34" rx="1.81" ry="2.31" transform="translate(-3.67 330.94) rotate(-88.7)"></ellipse><path fill="#6d0047" d="M169.12,233.83s12,24.82,30.88,24.82,30.88-24.73,30.88-24.73l-30.46,11.81Z" class="canChange" style="fill:rgb(197, 124, 106)"></path><path fill="#3d092c" d="M200,238.57a78.52,78.52,0,0,1-33-7.11s14.77,17.36,33,17.36,33-17.36,33-17.36A78.52,78.52,0,0,1,200,238.57Z"></path><path fill="#570038" d="M213.83,234.55a113.27,113.27,0,0,0-27.66,0c-7.67,1.12-17-2.12-17-2.12s14.32,6.71,30.88,6.14c16.56.57,30.88-6.14,30.88-6.14S221.5,235.67,213.83,234.55Z" class="canChange" style="fill:rgb(197, 124, 106)"></path><path fill="#fff0f0" d="M172.72,233.83l2.07,1.68s10.56,8.79,24.54,8.79,24.85-8,24.85-8l3-2.49s-13,5.35-27.3,5.35A79.77,79.77,0,0,1,172.72,233.83Z"></path><path fill="#d177b8" opacity="0.6" d="M181.75,250.63s9.31,9.73,17.22,10.48S219,250,219,250,200.8,266.18,181.75,250.63Z" class="cls-multipy"></path><path fill="#fffcb8" d="M202.63,250.24a12.3,12.3,0,0,1,1.79,6.13l3.54-.55s.13-2.43-2.29-6.31Z" class="cls-softlight"></path><path fill="#fffcb8" d="M208.2,248.68a11.77,11.77,0,0,1,2.43,6.48h.81s.49-3.09-2.34-6.48Z" class="cls-softlight"></path><path fill="#fff" d="M141.72,362l-.05,0h.05Z"></path><path fill="#fff" d="M145.87,361l-.14,0h0l.15,0Z"></path><path fill="#fff" d="M238.77,332c0,.31-.06.62-.08.94l-.09-.26C238.66,332.49,238.72,332.27,238.77,332Z"></path><path fill="#fff" d="M305.08,362h0l-.3-.05Z"></path><path fill="#fff" d="M333.6,343.49v.5l-.18-.8A2.64,2.64,0,0,0,333.6,343.49Z"></path><path fill="#fff" d="M336.26,353.78a1,1,0,0,0-.13.32A.79.79,0,0,1,336.26,353.78Z"></path><path fill="#fff" d="M343.48,372.41h0l-1.41-.55Z"></path><path fill="#9e1555" d="M382,399.36h-.28l-179.46-.65h-2.49l-179.47.65H20c1.81-20.6,19.89-32.18,19.89-32.18,2.35-7.55,33.84-20,55.54-27.77l.47-.18.49-.17c11.14-4,19.47-6.64,19.47-6.64h50.7c13.85,9.63,27.47,17.27,34,15.67,5.68-1.42,15.6-1.33,26.94-8.09,1-.62,6.94-.37,8-1l50.63-6.58s.22.06.62.21h0c.5.15,1.27.41,2.28.74,5.41,1.78,17.64,5.91,30.59,10.87l.5.19.49.19c19.19,7.4,39.6,16.54,41.48,22.56C362.1,367.18,380.18,378.76,382,399.36Z" class="canChange" style="fill:rgb(87, 75, 115)"></path><path d="M382.5,400H382l-10.88,0-21.55-.08-28.24-.1-119.07-.42h-2.49L66,399.84l-20.47.07L28.84,400l-9.34,0,.06-.72c1.73-19.72,18.25-31.41,20-32.59,2.6-6.86,26.94-17.22,47.43-24.89l.77-.28.81-.29c2.25-.84,4.44-1.64,6.54-2.39l.47-.16.48-.17c4.26-1.53,8.12-2.86,11.27-3.93,1.73-.59,3.25-1.09,4.51-1.5h0l.52-.18.54-.17,2.86-.94.09.63h0l.09.63-2,.65-.56.18-.55.18c-1.84.6-3.77,1.23-5.77,1.91-3.29,1.11-6.78,2.32-10.38,3.59a5,5,0,0,1-.5.18,3.75,3.75,0,0,1-.47.17c-2.71,1-5.47,2-8.24,3l-.68.26h0l-.65.25c-11,4.11-22,8.62-30.47,12.85s-14.44,8.16-15.37,11.15l-.07.23-.16.11s-.9.58-2.23,1.64h0c-4.78,3.81-15.66,14-17.31,29.29l8.54,0,16.82-.06,19.88-.07,79.59-.28h6.06l48.33-.18h2.5l40.72.14h6.12l72.6.26,27.82.1,21.36.08,10.6,0c-2.12-19.56-19.38-30.84-19.56-30.94l-.16-.11-.07-.23c-.47-1.5-2.21-3.24-4.9-5.13A83.31,83.31,0,0,0,346,356.16c-7.19-3.57-16.15-7.33-25.33-10.87l-.48-.19a4.09,4.09,0,0,0-.49-.18h0c-2.92-1.12-5.86-2.23-8.77-3.29h0l-.94-.35h0l-1-.35c-7.65-2.77-15-5.28-21.16-7.28,0,0,0,0,0,0l-.63-.2-.5-.16-.71-.23,0-.24.06-.39.09-.63.62.21,1.07.34h0c.22.07.47.16.73.23.47.17,1,.34,1.59.53h0c3.78,1.26,9.84,3.3,16.88,5.82l1.08.39h0l1.06.39h0c3.26,1.18,6.68,2.45,10.17,3.79l.53.21c.17.06.34.14.51.19,19.12,7.37,39.55,16.54,41.93,22.8,1.73,1.17,17.75,12.5,19.91,31.64,0,.31.07.63.1.95Z"></path><path fill="#ffc3a9" d="M243.48,372.06s-2.74,21.73,0,26l5.09.61L250,371Z"></path><path d="M249,399.27l-5.86-.7-.12-.2c-2.81-4.41-.19-25.48-.08-26.37l1,.12c0,.21-2.6,21-.19,25.51l4.32.52L249.52,371l1,.05Z"></path><path fill="#ffc3a9" d="M145.8,369s-2.74,24.22,0,29l5.1.68,1.44-30.89Z"></path><path d="M151.37,399.28l-5.88-.79-.12-.21c-2.79-4.89-.17-28.33-.06-29.32l1,.11c0,.24-2.61,23.42-.17,28.5l4.3.57,1.41-30.34,1,0Z"></path><path fill="#400077" opacity="0.32" d="M281.35,362.14a18,18,0,0,0,2.28.36c-.21.09-.42.21-.63.32-.5.24-1,.49-1.49.75a1,1,0,0,1-.16-.37A1.91,1.91,0,0,1,281.35,362.14Z" class="cls-multipy"></path><path fill="#9e1555" d="M152.34,332.42C165.19,320.84,167.5,301,167.5,301a41.72,41.72,0,0,0,2-11c0-5-42-5-56,10s-15,22-14,27-19,15-12,23,73,35,94,35Z" class="canChange" style="fill:rgb(87, 75, 115)"></path><path d="M181.5,384.5v1c-6,0-16.33-2.26-29.19-6.31l-.49-.16-.49-.15c-1.86-.59-3.78-1.23-5.75-1.89l-.49-.17-.49-.17c-4.92-1.68-10.12-3.58-15.53-5.68-10.41-4-19.85-8.13-27.18-11.71a107.14,107.14,0,0,1-11.55-6.35,16.69,16.69,0,0,1-3.22-2.58,6.07,6.07,0,0,1-1-6.9,8.11,8.11,0,0,1,.34-.74c.15-.3.32-.59.5-.89a42.7,42.7,0,0,1,6.62-7.48c2.95-2.85,5.72-5.55,5.39-7.22-1-5-.11-12.19,14.12-27.44,12.51-13.4,46.94-14.81,54.8-11.71a4.76,4.76,0,0,1,1.49.87A1.56,1.56,0,0,1,170,290a41.67,41.67,0,0,1-2,11.11c-.13,1-2,14.83-10.15,25.92-.1.14-.2.28-.32.42l-.29.39c-.12.17-.25.33-.39.5a35.32,35.32,0,0,1-3.77,4.08l-.39.37-.33-.37h0l0-.05-.29-.32a35.38,35.38,0,0,0,3.77-4l.56-.7.29-.39c.12-.14.22-.28.32-.42a52,52,0,0,0,6.92-13.29.14.14,0,0,0,0-.06A61.31,61.31,0,0,0,167,300.94l0-.1a50.6,50.6,0,0,0,1.39-5.51h0A28.69,28.69,0,0,0,169,290c0-.36-.52-.76-1.43-1.12a13.69,13.69,0,0,0-2.41-.65h0a46.25,46.25,0,0,0-7.64-.67h-.11c-13.33-.24-34.39,3-43.52,12.79C99.94,315.26,99,322.14,100,326.9c.44,2.21-2.39,5-5.67,8.14a51.31,51.31,0,0,0-5.74,6.19c-.22.3-.43.61-.62.91s-.32.52-.46.78c-1.26,2.33-1.48,4.63.38,6.75a19.8,19.8,0,0,0,4.06,3.1c2.58,1.62,6.13,3.52,10.34,5.58a400.42,400.42,0,0,0,42.4,17.25l.48.16.5.17c1.92.65,3.83,1.28,5.71,1.88l.5.16.49.16c11.82,3.74,22.43,6.3,28.86,6.36Z"></path><path fill="#9e1555" d="M120,303.5s34,27,75,40c0,0-1,20-7,24s-66-24-76-35Z" class="canChange" style="fill:rgb(87, 75, 115)"></path><path d="M195.52,343.14l0,.39c0,.05,0,.22,0,.46a4.19,4.19,0,0,0-.5,0l-.51.09c0-.09,0-.18,0-.25A213.47,213.47,0,0,1,167.35,333l-1.12-.54c-2.19-1.06-4.33-2.14-6.41-3.22h0l-2.58-1.36-.42-.23h0l-.45-.24A277.35,277.35,0,0,1,119.86,304l-.17-.13.62-.78c.12.09,4.57,3.6,12.08,8.64l.09.06c6.26,4.2,14.64,9.46,24.41,14.7,0,0,0,0,.06,0l.45.24,0,0,.41.22c2,1.08,4.11,2.16,6.25,3.22h0A216.67,216.67,0,0,0,195.15,343Z"></path><path d="M162.72,360c-19.58-8.21-44.29-21.16-50.35-27.83l-.74.68c5.28,5.81,23.73,15.86,39.66,23.24,1.82.84,6.13,2.81,11.2,4.93A5.8,5.8,0,0,1,162.72,360Z"></path><path fill="#400077" opacity="0.32" d="M135,293.5s-14.23,9.49-2.61,18.25a156.32,156.32,0,0,0,24.49,14.77s20.23-32,7.18-39C164.06,287.52,143,286.5,135,293.5Z" class="cls-multipy"></path><path fill="#9e1555" d="M247.19,334.42C234.34,322.84,232,303,232,303a41.72,41.72,0,0,1-2-11c0-5,42-5,56,10s15,22,14,27,19,15,12,23-73,35-94,35Z" class="canChange" style="fill:rgb(87, 75, 115)"></path><path d="M312.41,352.33a24.52,24.52,0,0,1-5.34,3.89c-11.07,6.58-35.63,17-57,24l-.51.17-.51.17c-2,.66-4.05,1.28-6,1.87l-.5.15-.53.15c-9.87,2.91-18.49,4.78-23.95,4.78v-1h.28c5.49-.05,14-1.92,23.75-4.8l.51-.15.51-.15q2.94-.88,6-1.87l.51-.17.51-.16c21.32-7,45.7-17.33,56.5-23.81a23,23,0,0,0,5.06-3.71c2.91-3.33.71-7.1-2.6-10.75-.29-.31-.58-.63-.88-.94s-.69-.71-1-1.06c-.64-.64-1.28-1.26-1.92-1.88-3.28-3.18-6.11-5.93-5.67-8.14.95-4.76,0-11.64-13.88-26.56-9.15-9.8-30.3-13-43.63-12.79a46.38,46.38,0,0,0-7.65.67h0a13.69,13.69,0,0,0-2.41.65c-.91.36-1.43.76-1.43,1.12a28.8,28.8,0,0,0,.58,5.33,48,48,0,0,0,1.39,5.51l0,.1a61.73,61.73,0,0,0,3.17,12.4,51.85,51.85,0,0,0,6.88,13.21,2,2,0,0,0,.17.23.9.9,0,0,0,.15.19l.29.39a36,36,0,0,0,4.33,4.69l-.33.37-.34.37a37.82,37.82,0,0,1-4.55-5l-.29-.39a.47.47,0,0,1-.09-.12l-.23-.3c-8.12-11.09-10-24.95-10.15-25.92a41.67,41.67,0,0,1-2-11.11c0-.82.69-1.51,2.07-2.05,7.85-3.1,42.29-1.69,54.79,11.71,14.24,15.25,15.13,22.43,14.13,27.44-.34,1.67,2.44,4.37,5.39,7.22,1.11,1.08,2.28,2.21,3.37,3.38h0l.91,1c.26.3.52.6.76.9h0C313.81,345.14,315.42,348.89,312.41,352.33Z"></path><path fill="#9e1555" d="M279.53,305.5s-34,27-75,40c0,0,1,20,7,24s66-24,76-35Z" class="canChange" style="fill:rgb(87, 75, 115)"></path><path d="M279.84,305.89l-.17.13c-.76.59-4,3.08-9.14,6.63h0a296.13,296.13,0,0,1-27.33,16.71l-.45.24-.44.24a227.15,227.15,0,0,1-37.25,16c0,.07,0,.16,0,.25l-.51-.09a4.19,4.19,0,0,0-.5,0c0-.24,0-.41,0-.46l0-.39.37-.12a222.83,222.83,0,0,0,35.4-15l1.91-1,.44-.24.45-.24.06,0c1-.5,1.91-1,2.84-1.53,8.15-4.51,15.21-8.93,20.74-12.62.28-.18.56-.36.83-.55l.09-.06c7.51-5,12-8.55,12.08-8.64l.31.39Z"></path><path d="M236.81,362c19.58-8.21,44.29-21.16,50.35-27.83l.74.68c-5.29,5.81-23.73,15.86-39.66,23.24-1.82.84-6.13,2.81-11.2,4.93A5.8,5.8,0,0,0,236.81,362Z"></path><path fill="#400077" opacity="0.32" d="M264.53,295.5s14.23,9.49,2.61,18.25a156.32,156.32,0,0,1-24.49,14.77s-20.24-32-7.18-39C235.47,289.52,256.53,288.5,264.53,295.5Z" class="cls-multipy"></path><path fill="#400077" opacity="0.32" d="M169.42,288.82A1.56,1.56,0,0,1,170,290a41.67,41.67,0,0,1-2,11.11c-.13,1-2,14.83-10.15,25.92,2,1.08,4.11,2.16,6.25,3.22h0c.28.21-.45,0-1.9-.38l-2.38-.68h0l-3-.86-.52-.13h0l-.53-.14c-13.7-3.76-39.25-9.51-38.1,4.36a17.79,17.79,0,0,0,1.29,5c.1.27.22.55.34.83s.25.56.38.85c0,0-23.4-3.09-19.84,12.81a27.4,27.4,0,0,0,2.43,6.4l.39.73s0,0,0,0l-.79.16c-5.62,1.24-39.46,9.94-36.12,39.29,0,.21,0,.42.08.64s.06.43.1.65a1,1,0,0,0,0,.16H28.83a0,0,0,0,1,0,0l-9.34,0,.06-.72c1.73-19.72,18.25-31.41,20-32.59,2.6-6.86,26.94-17.22,47.43-24.89a42.7,42.7,0,0,1,6.62-7.48c2.95-2.85,5.72-5.55,5.39-7.22-1-5-.11-12.19,14.12-27.44,12.51-13.4,46.94-14.81,54.8-11.71A4.76,4.76,0,0,1,169.42,288.82Z" class="cls-multipy"></path><path fill="#9e1555" d="M169.59,284.69c0,1.37-.09,2.72-.17,4.08h0c0-1.34.05-2.72.05-4.13Z" class="canChange" style="fill:rgb(87, 75, 115)"></path><path fill="#400077" opacity="0.32" d="M382.5,400H382l-10.88,0-21.55-.08c0-.21,0-.43,0-.64s0-.43,0-.65c-1.51-31.24-37.78-41.21-42.44-42.37l-.49-.11V356a5.66,5.66,0,0,0,0-.58c.18-19.31-20.11-15-34.36-9.61-1.18.44-2.31.9-3.38,1.34-2.72,1.13-5.08,2.22-6.85,3.08l-.12.05c-1.89.92-3.08,1.56-3.27,1.66,10.09-6.32,15.5-12.62,18-18.25,5.48-12.28-2.71-21.45-6.11-21h0a6.79,6.79,0,0,0-1.47.43c-.72.27-1.58.67-2.56,1.15l-.27.13c-5.72,2.91-14.9,8.79-20.74,12.62l-1,.63-1.75,1.17-.42.28-.41.27-1.18.79-.73.49,0-.09-.19-.48,1.91-1c-8.12-11.09-10-24.95-10.15-25.92a41.67,41.67,0,0,1-2-11.11c0-.82.69-1.51,2.07-2.05,7.85-3.1,42.29-1.69,54.79,11.71,14.24,15.25,15.13,22.43,14.13,27.44-.34,1.67,2.44,4.37,5.39,7.22,1.11,1.08,2.28,2.21,3.37,3.38h0c3.26,1.18,6.68,2.45,10.17,3.79l.53.21c.17.06.34.14.51.19,19.12,7.37,39.55,16.54,41.93,22.8,1.73,1.17,17.75,12.5,19.91,31.64,0,.31.07.63.1.95Z" class="cls-multipy"></path><g opacity="0.38" class="show"><path d="M209.34,186.92a65.62,65.62,0,0,1,2.67,6.77,58.7,58.7,0,0,1,1.88,7.06,27.75,27.75,0,0,1,.43,3.65,9.55,9.55,0,0,1-.41,3.7,8.07,8.07,0,0,1-.91,1.64c-.34.5-.68,1-1,1.5s-.76.95-1.18,1.4a4.1,4.1,0,0,1-1.44,1.11,4.48,4.48,0,0,0,1.29-1.24,15,15,0,0,0,1-1.48c.33-.51.64-1,.94-1.54a7.71,7.71,0,0,0,.78-1.58,10.33,10.33,0,0,0,.27-3.48,28.84,28.84,0,0,0-.49-3.55c-.41-2.36-1-4.69-1.69-7S210.08,189.23,209.34,186.92Z"></path></g><g opacity="0.38" class="show"><path d="M190.37,187.89c-.74,2.32-1.46,4.62-2.11,7a71,71,0,0,0-1.7,7,26.78,26.78,0,0,0-.48,3.55,10.08,10.08,0,0,0,.27,3.48,7.85,7.85,0,0,0,.77,1.57c.3.52.61,1,.94,1.54s.66,1,1,1.49a4.58,4.58,0,0,0,1.28,1.24,4.19,4.19,0,0,1-1.44-1.11q-.62-.68-1.17-1.41c-.37-.49-.71-1-1-1.5a8.3,8.3,0,0,1-.92-1.63,9.78,9.78,0,0,1-.41-3.71,29.56,29.56,0,0,1,.43-3.65,58.58,58.58,0,0,1,1.89-7.05A65.72,65.72,0,0,1,190.37,187.89Z"></path></g><g opacity="0.38" class="show"><path d="M207.65,214.06a15.76,15.76,0,0,0,1.22-1.72,4,4,0,0,0,.43-.92.68.68,0,0,0,0-.42.36.36,0,0,0-.3-.13,2.86,2.86,0,0,0-1.79.73,13.44,13.44,0,0,0-1.49,1.44L203,216.22l-1.38,1.59a5.85,5.85,0,0,1-.78.8,1.8,1.8,0,0,1-.56.33,1.1,1.1,0,0,1-.76,0,3.09,3.09,0,0,1-1-.7c-.25-.23-.49-.49-.74-.76-.49-.52-1-1.05-1.45-1.57-.93-1.06-1.88-2.09-2.78-3.17A13.54,13.54,0,0,0,192,211.3a2.84,2.84,0,0,0-1.78-.74c-.15,0-.26.05-.3.14a.72.72,0,0,0,0,.41,3.94,3.94,0,0,0,.44.93,16.66,16.66,0,0,0,1.22,1.71,11.9,11.9,0,0,1-1.39-1.61,4.8,4.8,0,0,1-.54-.94,1,1,0,0,1,0-.63.65.65,0,0,1,.56-.37,3.22,3.22,0,0,1,2.1.72,13,13,0,0,1,1.61,1.42c1,1,1.92,2.08,2.88,3.12.48.53,1,1,1.44,1.51a6.5,6.5,0,0,0,1.47,1.27c.31.17.9-.4,1.32-.9l1.42-1.58c1-1,1.87-2.12,2.87-3.12a13.72,13.72,0,0,1,1.62-1.42,3.25,3.25,0,0,1,2.1-.71.64.64,0,0,1,.57.37,1,1,0,0,1-.05.62,4.16,4.16,0,0,1-.53.95A13.39,13.39,0,0,1,207.65,214.06Z"></path></g><path fill="#72004d" opacity="0.17" d="M188.91,192.53s2.07,14.3,3,15.81,14.18,3.73,16.42,1,2.34-18.81,2.34-18.83a8.94,8.94,0,0,0,.8,1.68,36.16,36.16,0,0,1,1.62,4.44c1.14,3.86,1.76,8.57.54,12.64-1.36,4.55-4.36,6.87-6.65,9.48-2.08,2.36-4.1,5-6.42,6.51s-4.43-.74-6.53-2.79c-3.15-3.06-7.56-7.47-8.16-14.61a30.89,30.89,0,0,1,.43-7.46,26.3,26.3,0,0,1,1.5-6.17C187.91,194,188.91,192.49,188.91,192.53Z" class="cls-overlay canChange" style="fill:rgb(238, 204, 162)"></path><path opacity="0.42" d="M193.4,212.13s-4.69-3.39-3.41-.65S193.4,212.13,193.4,212.13Z" class="cls-overlay"></path><path opacity="0.42" d="M205.86,212.43s4.7-3.39,3.42-.65S205.86,212.43,205.86,212.43Z" class="cls-overlay"></path><path fill="#72004d" opacity="0.17" d="M206.68,161.65a7.82,7.82,0,0,0-.74,8.15l1.48,2.71S204.45,167.08,206.68,161.65Z" class="cls-overlay canChange" style="fill:rgb(238, 204, 162)"></path><path fill="#72004d" opacity="0.17" d="M191.86,158.94a13.57,13.57,0,0,1,4.44,9.95c0,6.34-4.44,17.2-4.44,17.2s3-11.77,2.22-18.1S191.86,158.94,191.86,158.94Z" class="cls-overlay canChange" style="fill:rgb(238, 204, 162)"></path></svg>